<?xml version="1.0" encoding="UTF-8" standalone="no"?><svg xmlns="http://www.w3.org/2000/svg" xmlns:xlink="http://www.w3.org/1999/xlink" contentScriptType="application/ecmascript" contentStyleType="text/css" height="194px" preserveAspectRatio="none" style="width:655px;height:194px;background:#FFFFFF;" version="1.1" viewBox="0 0 655 194" width="655px" zoomAndPan="magnify"><defs/><g><rect fill="#FEFECE" height="162.375" rx="5" ry="5" style="stroke:#FEFECE;stroke-width:1.5;" width="173" x="10" y="18.5"/><text fill="#000000" font-family="sans-serif" font-size="14" lengthAdjust="spacing" textLength="65" x="15" y="33.4951">firstName</text><text fill="#000000" font-family="sans-serif" font-size="14" lengthAdjust="spacing" textLength="30" x="133" y="33.4951">John</text><line style="stroke:#A80036;stroke-width:1.0;" x1="128" x2="128" y1="18.5" y2="38.7969"/><line style="stroke:#A80036;stroke-width:1.0;" x1="10" x2="183" y1="38.7969" y2="38.7969"/><text fill="#000000" font-family="sans-serif" font-size="14" lengthAdjust="spacing" textLength="64" x="15" y="53.792">lastName</text><text fill="#000000" font-family="sans-serif" font-size="14" lengthAdjust="spacing" textLength="39" x="133" y="53.792">Smith</text><line style="stroke:#A80036;stroke-width:1.0;" x1="128" x2="128" y1="38.7969" y2="59.0938"/><line style="stroke:#A80036;stroke-width:1.0;" x1="10" x2="183" y1="59.0938" y2="59.0938"/><text fill="#000000" font-family="sans-serif" font-size="14" lengthAdjust="spacing" textLength="42" x="15" y="74.0889">isAlive</text><text fill="#000000" font-family="sans-serif" font-size="14" lengthAdjust="spacing" textLength="45" x="133" y="74.0889">☑ true</text><line style="stroke:#A80036;stroke-width:1.0;" x1="128" x2="128" y1="59.0938" y2="79.3906"/><line style="stroke:#A80036;stroke-width:1.0;" x1="10" x2="183" y1="79.3906" y2="79.3906"/><text fill="#000000" font-family="sans-serif" font-size="14" lengthAdjust="spacing" textLength="26" x="15" y="94.3857">age</text><text fill="#000000" font-family="sans-serif" font-size="14" lengthAdjust="spacing" textLength="18" x="133" y="94.3857">27</text><line style="stroke:#A80036;stroke-width:1.0;" x1="128" x2="128" y1="79.3906" y2="99.6875"/><line style="stroke:#A80036;stroke-width:1.0;" x1="10" x2="183" y1="99.6875" y2="99.6875"/><text fill="#000000" font-family="sans-serif" font-size="14" lengthAdjust="spacing" textLength="56" x="15" y="114.6826">address</text><text fill="#000000" font-family="sans-serif" font-size="14" lengthAdjust="spacing" textLength="0" x="145" y="114.6826"/><line style="stroke:#A80036;stroke-width:1.0;" x1="128" x2="128" y1="99.6875" y2="119.9844"/><line style="stroke:#A80036;stroke-width:1.0;" x1="10" x2="183" y1="119.9844" y2="119.9844"/><text fill="#000000" font-family="sans-serif" font-size="14" lengthAdjust="spacing" textLength="108" x="15" y="134.9795">phoneNumbers</text><text fill="#000000" font-family="sans-serif" font-size="14" lengthAdjust="spacing" textLength="0" x="145" y="134.9795"/><line style="stroke:#A80036;stroke-width:1.0;" x1="128" x2="128" y1="119.9844" y2="140.2813"/><line style="stroke:#A80036;stroke-width:1.0;" x1="10" x2="183" y1="140.2813" y2="140.2813"/><text fill="#000000" font-family="sans-serif" font-size="14" lengthAdjust="spacing" textLength="55" x="15" y="155.2764">children</text><text fill="#000000" font-family="sans-serif" font-size="14" lengthAdjust="spacing" textLength="0" x="145" y="155.2764"/><line style="stroke:#A80036;stroke-width:1.0;" x1="128" x2="128" y1="140.2813" y2="160.5781"/><line style="stroke:#A80036;stroke-width:1.0;" x1="10" x2="183" y1="160.5781" y2="160.5781"/><text fill="#000000" font-family="sans-serif" font-size="14" lengthAdjust="spacing" textLength="52" x="15" y="175.5732">spouse</text><text fill="#000000" font-family="sans-serif" font-size="14" lengthAdjust="spacing" textLength="8" x="133" y="175.5732">␀</text><line style="stroke:#A80036;stroke-width:1.0;" x1="128" x2="128" y1="160.5781" y2="180.875"/><rect fill="none" height="162.375" rx="5" ry="5" style="stroke:#A80036;stroke-width:1.5;" width="173" x="10" y="18.5"/><rect fill="#FEFECE" height="81.1875" rx="5" ry="5" style="stroke:#FEFECE;stroke-width:1.5;" width="213" x="220" y="10"/><text fill="#000000" font-family="sans-serif" font-size="14" lengthAdjust="spacing" textLength="98" x="225" y="24.9951">streetAddress</text><text fill="#000000" font-family="sans-serif" font-size="14" lengthAdjust="spacing" textLength="95" x="333" y="24.9951">21 2nd Street</text><line style="stroke:#A80036;stroke-width:1.0;" x1="328" x2="328" y1="10" y2="30.2969"/><line style="stroke:#A80036;stroke-width:1.0;" x1="220" x2="433" y1="30.2969" y2="30.2969"/><text fill="#000000" font-family="sans-serif" font-size="14" lengthAdjust="spacing" textLength="23" x="225" y="45.292">city</text><text fill="#000000" font-family="sans-serif" font-size="14" lengthAdjust="spacing" textLength="65" x="333" y="45.292">New York</text><line style="stroke:#A80036;stroke-width:1.0;" x1="328" x2="328" y1="30.2969" y2="50.5938"/><line style="stroke:#A80036;stroke-width:1.0;" x1="220" x2="433" y1="50.5938" y2="50.5938"/><text fill="#000000" font-family="sans-serif" font-size="14" lengthAdjust="spacing" textLength="35" x="225" y="65.5889">state</text><text fill="#000000" font-family="sans-serif" font-size="14" lengthAdjust="spacing" textLength="19" x="333" y="65.5889">NY</text><line style="stroke:#A80036;stroke-width:1.0;" x1="328" x2="328" y1="50.5938" y2="70.8906"/><line style="stroke:#A80036;stroke-width:1.0;" x1="220" x2="433" y1="70.8906" y2="70.8906"/><text fill="#000000" font-family="sans-serif" font-size="14" lengthAdjust="spacing" textLength="79" x="225" y="85.8857">postalCode</text><text fill="#000000" font-family="sans-serif" font-size="14" lengthAdjust="spacing" textLength="86" x="333" y="85.8857">10021-3100</text><line style="stroke:#A80036;stroke-width:1.0;" x1="328" x2="328" y1="70.8906" y2="91.1875"/><rect fill="none" height="81.1875" rx="5" ry="5" style="stroke:#A80036;stroke-width:1.5;" width="213" x="220" y="10"/><rect fill="#FEFECE" height="40.5938" rx="5" ry="5" style="stroke:#FEFECE;stroke-width:1.5;" width="22" x="314.5" y="109"/><text fill="#000000" font-family="sans-serif" font-size="14" lengthAdjust="spacing" textLength="0" x="331.5" y="123.9951"/><line style="stroke:#A80036;stroke-width:1.0;" x1="314.5" x2="336.5" y1="129.2969" y2="129.2969"/><text fill="#000000" font-family="sans-serif" font-size="14" lengthAdjust="spacing" textLength="0" x="331.5" y="144.292"/><rect fill="none" height="40.5938" rx="5" ry="5" style="stroke:#A80036;stroke-width:1.5;" width="22" x="314.5" y="109"/><rect fill="#FEFECE" height="40.5938" rx="5" ry="5" style="stroke:#FEFECE;stroke-width:1.5;" width="173" x="470" y="79"/><text fill="#000000" font-family="sans-serif" font-size="14" lengthAdjust="spacing" textLength="30" x="475" y="93.9951">type</text><text fill="#000000" font-family="sans-serif" font-size="14" lengthAdjust="spacing" textLength="40" x="539" y="93.9951">home</text><line style="stroke:#A80036;stroke-width:1.0;" x1="534" x2="534" y1="79" y2="99.2969"/><line style="stroke:#A80036;stroke-width:1.0;" x1="470" x2="643" y1="99.2969" y2="99.2969"/><text fill="#000000" font-family="sans-serif" font-size="14" lengthAdjust="spacing" textLength="54" x="475" y="114.292">number</text><text fill="#000000" font-family="sans-serif" font-size="14" lengthAdjust="spacing" textLength="99" x="539" y="114.292">212 555-1234</text><line style="stroke:#A80036;stroke-width:1.0;" x1="534" x2="534" y1="99.2969" y2="119.5938"/><rect fill="none" height="40.5938" rx="5" ry="5" style="stroke:#A80036;stroke-width:1.5;" width="173" x="470" y="79"/><rect fill="#FEFECE" height="40.5938" rx="5" ry="5" style="stroke:#FEFECE;stroke-width:1.5;" width="173" x="470" y="138"/><text fill="#000000" font-family="sans-serif" font-size="14" lengthAdjust="spacing" textLength="30" x="475" y="152.9951">type</text><text fill="#000000" font-family="sans-serif" font-size="14" lengthAdjust="spacing" textLength="37" x="539" y="152.9951">office</text><line style="stroke:#A80036;stroke-width:1.0;" x1="534" x2="534" y1="138" y2="158.2969"/><line style="stroke:#A80036;stroke-width:1.0;" x1="470" x2="643" y1="158.2969" y2="158.2969"/><text fill="#000000" font-family="sans-serif" font-size="14" lengthAdjust="spacing" textLength="54" x="475" y="173.292">number</text><text fill="#000000" font-family="sans-serif" font-size="14" lengthAdjust="spacing" textLength="99" x="539" y="173.292">646 555-4567</text><line style="stroke:#A80036;stroke-width:1.0;" x1="534" x2="534" y1="158.2969" y2="178.5938"/><rect fill="none" height="40.5938" rx="5" ry="5" style="stroke:#A80036;stroke-width:1.5;" width="173" x="470" y="138"/><rect fill="#FEFECE" height="15" rx="5" ry="5" style="stroke:#FEFECE;stroke-width:1.5;" width="30" x="314.5" y="168.5"/><rect fill="none" height="15" rx="5" ry="5" style="stroke:#A80036;stroke-width:1.5;" width="30" x="314.5" y="168.5"/><path d="M171,109.5 L184,109.5 C195.4423,109.5 215.1437,102.8845 236.2899,94.0839 " fill="none" style="stroke:#A80036;stroke-width:1.0;stroke-dasharray:3.0,3.0;"/><path d="M237.4613,96.8471 L238.3623,93.2054 L235.1185,91.3208 L243.1977,91.1554 L237.4613,96.8471 " fill="#A80036" style="stroke:#A80036;stroke-width:1.0;"/><ellipse cx="171" cy="109.5" fill="#A80036" rx="3" ry="3" style="stroke:#A80036;stroke-width:1.0;"/><path d="M327,118.5 L340,118.5 C380.4093,118.5 424.9081,115.1594 462.9619,111.2797 " fill="none" style="stroke:#A80036;stroke-width:1.0;stroke-dasharray:3.0,3.0;"/><path d="M463.2748,114.2883 L465.2184,111.045 L462.6489,108.271 L470.4836,110.4974 L463.2748,114.2883 " fill="#A80036" style="stroke:#A80036;stroke-width:1.0;"/><ellipse cx="327" cy="118.5" fill="#A80036" rx="3" ry="3" style="stroke:#A80036;stroke-width:1.0;"/><path d="M327,139.5 L340,139.5 C380.4093,139.5 424.9081,142.8406 462.9619,146.7203 " fill="none" style="stroke:#A80036;stroke-width:1.0;stroke-dasharray:3.0,3.0;"/><path d="M462.6489,149.729 L465.2184,146.955 L463.2748,143.7117 L470.4836,147.5026 L462.6489,149.729 " fill="#A80036" style="stroke:#A80036;stroke-width:1.0;"/><ellipse cx="327" cy="139.5" fill="#A80036" rx="3" ry="3" style="stroke:#A80036;stroke-width:1.0;"/><path d="M171,129.5 L184,129.5 C228.2363,129.5 280.2243,129.5 307.3639,129.5 " fill="none" style="stroke:#A80036;stroke-width:1.0;stroke-dasharray:3.0,3.0;"/><path d="M307.3639,132.5355 L309.6405,129.5 L307.3639,126.4645 L314.9527,129.5 L307.3639,132.5355 " fill="#A80036" style="stroke:#A80036;stroke-width:1.0;"/><ellipse cx="171" cy="129.5" fill="#A80036" rx="3" ry="3" style="stroke:#A80036;stroke-width:1.0;"/><path d="M171,149.5 L184,149.5 C200.6058,149.5 203.7765,155.9574 220,159.5 C250.2211,166.0991 285.8097,171.2869 307.1039,174.1197 " fill="none" style="stroke:#A80036;stroke-width:1.0;stroke-dasharray:3.0,3.0;"/><path d="M306.7033,177.191 L309.4074,174.4201 L307.5045,171.0483 L314.7822,175.1211 L306.7033,177.191 " fill="#A80036" style="stroke:#A80036;stroke-width:1.0;"/><ellipse cx="171" cy="149.5" fill="#A80036" rx="3" ry="3" style="stroke:#A80036;stroke-width:1.0;"/><!--MD5=[80f74d77dcbe749528f4331a8dac1df4]
@startjson json-sample
{
  "firstName": "John",
  "lastName": "Smith",
  "isAlive": true,
  "age": 27,
  "address": {
    "streetAddress": "21 2nd Street",
    "city": "New York",
    "state": "NY",
    "postalCode": "10021-3100"
  },
  "phoneNumbers": [
    {
      "type": "home",
      "number": "212 555-1234"
    },
    {
      "type": "office",
      "number": "646 555-4567"
    }
  ],
  "children": [],
  "spouse": null
}
@endjson

PlantUML version 1.2021.11(Sat Oct 02 13:26:11 GMT 2021)
(GPL source distribution)
Java Runtime: OpenJDK Runtime Environment
JVM: OpenJDK 64-Bit Server VM
Default Encoding: UTF-8
Language: en
Country: US
--></g></svg>